<mxfile host="65bd71144e">
    <diagram id="OkvxEi5dOG3B4r6U1KMY" name="Page-1">
        <mxGraphModel dx="3672" dy="51" grid="1" gridSize="10" guides="1" tooltips="1" connect="1" arrows="1" fold="1" page="1" pageScale="1" pageWidth="827" pageHeight="1169" math="0" shadow="0">
            <root>
                <mxCell id="0"/>
                <mxCell id="1" parent="0"/>
                <mxCell id="2" value="&lt;b&gt;FLOWCHART KEY&lt;/b&gt;" style="text;html=1;strokeColor=none;fillColor=none;align=center;verticalAlign=middle;whiteSpace=wrap;rounded=0;" vertex="1" parent="1">
                    <mxGeometry x="1440" y="1400" width="160" height="40" as="geometry"/>
                </mxCell>
                <mxCell id="3" value="&lt;b&gt;Event&lt;/b&gt;" style="shape=hexagon;perimeter=hexagonPerimeter2;whiteSpace=wrap;html=1;fixedSize=1;fillColor=#dae8fc;strokeColor=#6c8ebf;fontColor=#000000;" vertex="1" parent="1">
                    <mxGeometry x="1440" y="1640" width="160" height="40" as="geometry"/>
                </mxCell>
                <mxCell id="4" value="&lt;b&gt;Input OR Output&lt;/b&gt;" style="shape=parallelogram;perimeter=parallelogramPerimeter;whiteSpace=wrap;html=1;fixedSize=1;fillColor=#ffe6cc;strokeColor=#d79b00;fontColor=#000000;" vertex="1" parent="1">
                    <mxGeometry x="1440" y="1720" width="160" height="40" as="geometry"/>
                </mxCell>
                <mxCell id="5" value="Start / End" style="ellipse;whiteSpace=wrap;html=1;fontSize=17;fillColor=#e51400;strokeColor=#B20000;fontColor=#ffffff;fontStyle=1" vertex="1" parent="1">
                    <mxGeometry x="1440" y="1480" width="160" height="40" as="geometry"/>
                </mxCell>
                <mxCell id="6" value="" style="group" vertex="1" connectable="0" parent="1">
                    <mxGeometry x="1420" y="1800" width="205.08999999999992" height="45" as="geometry"/>
                </mxCell>
                <mxCell id="7" value="&lt;b&gt;Decision&lt;/b&gt;" style="rhombus;whiteSpace=wrap;html=1;fillColor=#fff2cc;strokeColor=#d6b656;fontColor=#000000;" vertex="1" parent="6">
                    <mxGeometry x="42.11981566820282" width="117.97235023041475" height="40" as="geometry"/>
                </mxCell>
                <mxCell id="8" value="TRUE" style="ellipse;whiteSpace=wrap;html=1;aspect=fixed;fontColor=#ffffff;fillColor=#a20025;strokeColor=#6F0000;fontStyle=1" vertex="1" parent="6">
                    <mxGeometry x="160.08999999999992" width="45" height="45" as="geometry"/>
                </mxCell>
                <mxCell id="9" value="FALSE" style="ellipse;whiteSpace=wrap;html=1;aspect=fixed;fontColor=#ffffff;fillColor=#a20025;strokeColor=#6F0000;fontStyle=1" vertex="1" parent="6">
                    <mxGeometry width="42.12" height="42.12" as="geometry"/>
                </mxCell>
                <mxCell id="10" value="&lt;b&gt;Generic step&lt;/b&gt;" style="rounded=0;whiteSpace=wrap;html=1;fillColor=#e1d5e7;strokeColor=#9673a6;fontColor=#000000;" vertex="1" parent="1">
                    <mxGeometry x="1440" y="1560" width="160" height="40" as="geometry"/>
                </mxCell>
                <mxCell id="11" value="subroutine / subprogram" style="shape=process;whiteSpace=wrap;html=1;backgroundOutline=1;fontSize=13;fillColor=#647687;fontColor=#ffffff;fontStyle=1;strokeColor=#FFFFFF;" vertex="1" parent="1">
                    <mxGeometry x="1440" y="1880" width="160" height="40" as="geometry"/>
                </mxCell>
                <mxCell id="14" style="edgeStyle=none;html=1;" edge="1" parent="1" source="12" target="13">
                    <mxGeometry relative="1" as="geometry"/>
                </mxCell>
                <mxCell id="12" value="`npm start`" style="ellipse;whiteSpace=wrap;html=1;fontSize=17;fillColor=#e51400;strokeColor=#B20000;fontColor=#ffffff;fontStyle=1" vertex="1" parent="1">
                    <mxGeometry x="520" y="1360" width="160" height="40" as="geometry"/>
                </mxCell>
                <mxCell id="18" style="edgeStyle=orthogonalEdgeStyle;html=1;entryX=0.5;entryY=0;entryDx=0;entryDy=0;" edge="1" parent="1" source="13" target="15">
                    <mxGeometry relative="1" as="geometry">
                        <Array as="points">
                            <mxPoint x="600" y="1520"/>
                            <mxPoint x="360" y="1520"/>
                        </Array>
                    </mxGeometry>
                </mxCell>
                <mxCell id="19" style="edgeStyle=orthogonalEdgeStyle;html=1;entryX=0.5;entryY=0;entryDx=0;entryDy=0;" edge="1" parent="1" source="13" target="16">
                    <mxGeometry relative="1" as="geometry"/>
                </mxCell>
                <mxCell id="20" style="edgeStyle=orthogonalEdgeStyle;html=1;" edge="1" parent="1" source="13" target="17">
                    <mxGeometry relative="1" as="geometry">
                        <Array as="points">
                            <mxPoint x="600" y="1520"/>
                            <mxPoint x="840" y="1520"/>
                        </Array>
                    </mxGeometry>
                </mxCell>
                <mxCell id="21" value="parallel" style="edgeLabel;html=1;align=center;verticalAlign=middle;resizable=0;points=[];fontStyle=1" vertex="1" connectable="0" parent="20">
                    <mxGeometry x="-0.8875" relative="1" as="geometry">
                        <mxPoint as="offset"/>
                    </mxGeometry>
                </mxCell>
                <mxCell id="13" value="&lt;b&gt;`gulp develop`&lt;/b&gt;" style="rounded=0;whiteSpace=wrap;html=1;fillColor=#e1d5e7;strokeColor=#9673a6;fontColor=#000000;" vertex="1" parent="1">
                    <mxGeometry x="520" y="1440" width="160" height="40" as="geometry"/>
                </mxCell>
                <mxCell id="23" style="edgeStyle=orthogonalEdgeStyle;html=1;" edge="1" parent="1" source="15" target="22">
                    <mxGeometry relative="1" as="geometry"/>
                </mxCell>
                <mxCell id="24" value="&lt;b&gt;series&lt;/b&gt;" style="edgeLabel;html=1;align=center;verticalAlign=middle;resizable=0;points=[];" vertex="1" connectable="0" parent="23">
                    <mxGeometry x="-0.05" relative="1" as="geometry">
                        <mxPoint as="offset"/>
                    </mxGeometry>
                </mxCell>
                <mxCell id="15" value="&lt;b&gt;task - `compile-theme`&lt;/b&gt;" style="rounded=0;whiteSpace=wrap;html=1;fillColor=#e1d5e7;strokeColor=#9673a6;fontColor=#000000;" vertex="1" parent="1">
                    <mxGeometry x="280" y="1560" width="160" height="40" as="geometry"/>
                </mxCell>
                <mxCell id="16" value="&lt;b&gt;task - `icons`&lt;/b&gt;" style="rounded=0;whiteSpace=wrap;html=1;fillColor=#e1d5e7;strokeColor=#9673a6;fontColor=#000000;" vertex="1" parent="1">
                    <mxGeometry x="520" y="1560" width="160" height="40" as="geometry"/>
                </mxCell>
                <mxCell id="39" style="edgeStyle=orthogonalEdgeStyle;html=1;" edge="1" parent="1" source="17" target="38">
                    <mxGeometry relative="1" as="geometry"/>
                </mxCell>
                <mxCell id="17" value="&lt;b&gt;taks - `serve`&lt;/b&gt;" style="rounded=0;whiteSpace=wrap;html=1;fillColor=#e1d5e7;strokeColor=#9673a6;fontColor=#000000;" vertex="1" parent="1">
                    <mxGeometry x="760" y="1560" width="160" height="40" as="geometry"/>
                </mxCell>
                <mxCell id="26" style="edgeStyle=orthogonalEdgeStyle;html=1;entryX=0.5;entryY=0;entryDx=0;entryDy=0;" edge="1" parent="1" source="22" target="25">
                    <mxGeometry relative="1" as="geometry">
                        <Array as="points">
                            <mxPoint x="360" y="1720"/>
                        </Array>
                    </mxGeometry>
                </mxCell>
                <mxCell id="28" style="edgeStyle=orthogonalEdgeStyle;html=1;entryX=0.5;entryY=0;entryDx=0;entryDy=0;" edge="1" parent="1" source="22" target="27">
                    <mxGeometry relative="1" as="geometry">
                        <Array as="points">
                            <mxPoint x="360" y="1720"/>
                            <mxPoint x="-200" y="1720"/>
                        </Array>
                    </mxGeometry>
                </mxCell>
                <mxCell id="30" style="edgeStyle=orthogonalEdgeStyle;html=1;" edge="1" parent="1" source="22" target="29">
                    <mxGeometry relative="1" as="geometry">
                        <Array as="points">
                            <mxPoint x="360" y="1720"/>
                            <mxPoint x="240" y="1720"/>
                        </Array>
                    </mxGeometry>
                </mxCell>
                <mxCell id="31" value="&lt;b&gt;parallel&lt;/b&gt;" style="edgeLabel;html=1;align=center;verticalAlign=middle;resizable=0;points=[];" vertex="1" connectable="0" parent="30">
                    <mxGeometry x="-0.8765" relative="1" as="geometry">
                        <mxPoint y="8" as="offset"/>
                    </mxGeometry>
                </mxCell>
                <mxCell id="22" value="&lt;b&gt;task - `clean-theme`&lt;/b&gt;" style="rounded=0;whiteSpace=wrap;html=1;fillColor=#e1d5e7;strokeColor=#9673a6;fontColor=#000000;" vertex="1" parent="1">
                    <mxGeometry x="280" y="1640" width="160" height="40" as="geometry"/>
                </mxCell>
                <mxCell id="33" style="edgeStyle=orthogonalEdgeStyle;html=1;" edge="1" parent="1" source="25" target="32">
                    <mxGeometry relative="1" as="geometry"/>
                </mxCell>
                <mxCell id="25" value="&lt;b&gt;task - `compile-theme-css`&lt;/b&gt;" style="rounded=0;whiteSpace=wrap;html=1;fillColor=#e1d5e7;strokeColor=#9673a6;fontColor=#000000;" vertex="1" parent="1">
                    <mxGeometry x="-740" y="1760" width="200" height="40" as="geometry"/>
                </mxCell>
                <mxCell id="35" style="edgeStyle=orthogonalEdgeStyle;html=1;entryX=0.5;entryY=0;entryDx=0;entryDy=0;" edge="1" parent="1" source="27" target="34">
                    <mxGeometry relative="1" as="geometry"/>
                </mxCell>
                <mxCell id="27" value="&lt;b&gt;task - `compile-theme-js`&lt;/b&gt;" style="rounded=0;whiteSpace=wrap;html=1;fillColor=#e1d5e7;strokeColor=#9673a6;fontColor=#000000;" vertex="1" parent="1">
                    <mxGeometry x="-300" y="1760" width="200" height="40" as="geometry"/>
                </mxCell>
                <mxCell id="37" style="edgeStyle=orthogonalEdgeStyle;html=1;entryX=0.5;entryY=0;entryDx=0;entryDy=0;" edge="1" parent="1" source="29" target="36">
                    <mxGeometry relative="1" as="geometry"/>
                </mxCell>
                <mxCell id="29" value="&lt;b&gt;task - `minify-theme-img`&lt;/b&gt;" style="rounded=0;whiteSpace=wrap;html=1;fillColor=#e1d5e7;strokeColor=#9673a6;fontColor=#000000;" vertex="1" parent="1">
                    <mxGeometry x="140" y="1760" width="200" height="40" as="geometry"/>
                </mxCell>
                <mxCell id="32" value="&lt;span style=&quot;font-weight: normal&quot;&gt;assets = getSourcePaths('css')&lt;br&gt;promisses = []&lt;br&gt;&lt;br&gt;assets.forEach(asset =&amp;gt; {&lt;br&gt;&lt;span style=&quot;white-space: pre&quot;&gt;&#9;&lt;/span&gt;promisses.push(new Promise(resolve =&amp;gt; {&lt;br&gt;&lt;span style=&quot;white-space: pre&quot;&gt;&#9;&lt;/span&gt;&lt;span style=&quot;white-space: pre&quot;&gt;&#9;&lt;/span&gt;-&amp;gt; perform css transiler tasks&lt;br&gt;&lt;span style=&quot;white-space: pre&quot;&gt;&#9;&lt;/span&gt;&lt;span style=&quot;white-space: pre&quot;&gt;&#9;&lt;/span&gt;-&amp;gt; output the css in a common direcotry&lt;br&gt;&lt;span style=&quot;white-space: pre&quot;&gt;&#9;&lt;/span&gt;}))&lt;br&gt;})&lt;br&gt;&lt;/span&gt;" style="shape=process;whiteSpace=wrap;html=1;backgroundOutline=1;fontSize=13;fillColor=#647687;fontColor=#ffffff;fontStyle=1;strokeColor=#FFFFFF;align=left;spacingLeft=10;verticalAlign=top;" vertex="1" parent="1">
                    <mxGeometry x="-840" y="1840" width="400" height="150" as="geometry"/>
                </mxCell>
                <mxCell id="34" value="&lt;span style=&quot;font-weight: normal&quot;&gt;assets = getSourcePaths('js)&lt;br&gt;promisses = []&lt;br&gt;&lt;br&gt;assets.forEach(asset =&amp;gt; {&lt;br&gt;&lt;span style=&quot;white-space: pre&quot;&gt;&#9;&lt;/span&gt;promisses.push(new Promise(resolve =&amp;gt; {&lt;br&gt;&lt;span style=&quot;white-space: pre&quot;&gt;&#9;&lt;/span&gt;&lt;span style=&quot;white-space: pre&quot;&gt;&#9;&lt;/span&gt;-&amp;gt; perform js transiler tasks&lt;br&gt;&lt;span style=&quot;white-space: pre&quot;&gt;&#9;&lt;/span&gt;&lt;span style=&quot;white-space: pre&quot;&gt;&#9;&lt;/span&gt;-&amp;gt; output the js in a common direcotry&lt;br&gt;&lt;span style=&quot;white-space: pre&quot;&gt;&#9;&lt;/span&gt;}))&lt;br&gt;})&lt;br&gt;&lt;/span&gt;" style="shape=process;whiteSpace=wrap;html=1;backgroundOutline=1;fontSize=13;fillColor=#647687;fontColor=#ffffff;fontStyle=1;strokeColor=#FFFFFF;align=left;spacingLeft=10;verticalAlign=top;" vertex="1" parent="1">
                    <mxGeometry x="-400" y="1840" width="400" height="150" as="geometry"/>
                </mxCell>
                <mxCell id="36" value="&lt;span style=&quot;font-weight: normal&quot;&gt;assets = getSourcePaths('js)&lt;br&gt;promisses = []&lt;br&gt;&lt;br&gt;assets.forEach(asset =&amp;gt; {&lt;br&gt;&lt;span style=&quot;white-space: pre&quot;&gt;&#9;&lt;/span&gt;promisses.push(new Promise(resolve =&amp;gt; {&lt;br&gt;&lt;span style=&quot;white-space: pre&quot;&gt;&#9;&lt;/span&gt;&lt;span style=&quot;white-space: pre&quot;&gt;&#9;&lt;/span&gt;-&amp;gt; perform js transiler tasks&lt;br&gt;&lt;span style=&quot;white-space: pre&quot;&gt;&#9;&lt;/span&gt;&lt;span style=&quot;white-space: pre&quot;&gt;&#9;&lt;/span&gt;-&amp;gt; output the js in a common direcotry&lt;br&gt;&lt;span style=&quot;white-space: pre&quot;&gt;&#9;&lt;/span&gt;}))&lt;br&gt;})&lt;br&gt;&lt;/span&gt;" style="shape=process;whiteSpace=wrap;html=1;backgroundOutline=1;fontSize=13;fillColor=#647687;fontColor=#ffffff;fontStyle=1;strokeColor=#FFFFFF;align=left;spacingLeft=10;verticalAlign=top;" vertex="1" parent="1">
                    <mxGeometry x="40" y="1840" width="400" height="150" as="geometry"/>
                </mxCell>
                <mxCell id="41" value="" style="edgeStyle=orthogonalEdgeStyle;html=1;entryX=0.5;entryY=0;entryDx=0;entryDy=0;" edge="1" parent="1" source="38" target="42">
                    <mxGeometry relative="1" as="geometry">
                        <mxPoint x="900" y="1760" as="targetPoint"/>
                    </mxGeometry>
                </mxCell>
                <mxCell id="38" value="run `serve.js` task" style="shape=process;whiteSpace=wrap;html=1;backgroundOutline=1;fontSize=13;fillColor=#647687;fontColor=#ffffff;fontStyle=1;strokeColor=#FFFFFF;" vertex="1" parent="1">
                    <mxGeometry x="700" y="1640" width="280" height="40" as="geometry"/>
                </mxCell>
                <mxCell id="42" value="START `server.js`" style="ellipse;whiteSpace=wrap;html=1;fontSize=17;fillColor=#e51400;strokeColor=#B20000;fontColor=#ffffff;fontStyle=1" vertex="1" parent="1">
                    <mxGeometry x="760" y="2000" width="160" height="40" as="geometry"/>
                </mxCell>
            </root>
        </mxGraphModel>
    </diagram>
</mxfile>